<svg width="20" height="18" viewBox="0 0 20 18" fill="none" xmlns="http://www.w3.org/2000/svg">
<path d="M7 8C7.79113 8 8.56448 7.76541 9.22228 7.32588C9.88008 6.88635 10.3928 6.26164 10.6955 5.53074C10.9983 4.79983 11.0775 3.99556 10.9231 3.21964C10.7688 2.44372 10.3878 1.73098 9.82843 1.17157C9.26902 0.612164 8.55629 0.231202 7.78036 0.0768607C7.00444 -0.0774802 6.20017 0.00173312 5.46927 0.304484C4.73836 0.607234 4.11365 1.11992 3.67412 1.77772C3.2346 2.43552 3 3.20888 3 4C3 5.06087 3.42143 6.07828 4.17157 6.82843C4.92172 7.57857 5.93913 8 7 8ZM7 2C7.39556 2 7.78224 2.1173 8.11114 2.33706C8.44004 2.55683 8.69638 2.86918 8.84776 3.23463C8.99913 3.60009 9.03874 4.00222 8.96157 4.39018C8.8844 4.77814 8.69392 5.13451 8.41421 5.41422C8.13451 5.69392 7.77814 5.8844 7.39018 5.96157C7.00222 6.03874 6.60009 5.99914 6.23463 5.84776C5.86918 5.69639 5.55682 5.44004 5.33706 5.11114C5.1173 4.78224 5 4.39556 5 4C5 3.46957 5.21071 2.96086 5.58579 2.58579C5.96086 2.21072 6.46957 2 7 2Z" fill="#0001FC"/>
<path d="M15 10C15.5933 10 16.1734 9.82405 16.6667 9.49441C17.1601 9.16477 17.5446 8.69623 17.7716 8.14805C17.9987 7.59987 18.0581 6.99667 17.9424 6.41473C17.8266 5.83279 17.5409 5.29824 17.1213 4.87868C16.7018 4.45912 16.1672 4.1734 15.5853 4.05765C15.0033 3.94189 14.4001 4.0013 13.8519 4.22836C13.3038 4.45543 12.8352 4.83994 12.5056 5.33329C12.1759 5.82664 12 6.40666 12 7C12 7.79565 12.3161 8.55871 12.8787 9.12132C13.4413 9.68393 14.2044 10 15 10ZM15 6C15.1978 6 15.3911 6.05865 15.5556 6.16853C15.72 6.27841 15.8482 6.43459 15.9239 6.61732C15.9996 6.80004 16.0194 7.00111 15.9808 7.19509C15.9422 7.38907 15.847 7.56726 15.7071 7.70711C15.5673 7.84696 15.3891 7.9422 15.1951 7.98079C15.0011 8.01937 14.8 7.99957 14.6173 7.92388C14.4346 7.84819 14.2784 7.72002 14.1685 7.55557C14.0586 7.39112 14 7.19778 14 7C14 6.73478 14.1054 6.48043 14.2929 6.29289C14.4804 6.10536 14.7348 6 15 6Z" fill="#0001FC" fill-opacity="0.5"/>
<path d="M8.35782 10.1425C9.71406 10.4106 10.9605 11.0744 11.94 12.0501L13.14 13.6501C13.7064 14.6756 14.0024 15.8285 14 17.0001C14 17.2653 13.8946 17.5196 13.7071 17.7072C13.5196 17.8947 13.2652 18.0001 13 18.0001C12.7348 18.0001 12.4804 17.8947 12.2929 17.7072C12.1054 17.5196 12 17.2653 12 17.0001C12 15.674 11.4732 14.4022 10.5355 13.4645C9.59785 12.5268 8.32608 12.0001 7 12.0001C5.67392 12.0001 4.40215 12.5268 3.46447 13.4645C2.52678 14.4022 2 15.674 2 17.0001C2 17.2653 1.89464 17.5196 1.70711 17.7072C1.51957 17.8947 1.26522 18.0001 1 18.0001C0.734784 18.0001 0.48043 17.8947 0.292893 17.7072C0.105357 17.5196 0 17.2653 0 17.0001C0.00187019 15.6176 0.413069 14.2666 1.18174 13.1175C1.95041 11.9684 3.04213 11.0726 4.31923 10.5432C5.59632 10.0137 7.00159 9.87431 8.35782 10.1425Z" fill="#0001FC"/>
<path d="M15 10.9905C13.8918 10.9918 12.8155 11.3611 11.94 12.0405C10.9605 11.0649 9.71406 10.4011 8.35782 10.133C7.00159 9.86479 5.59632 10.0042 4.31923 10.5337C3.04213 11.0631 1.95041 11.9589 1.18174 13.108C0.413069 14.2571 0.00187019 15.608 0 16.9905C0 17.2558 0.105357 17.5101 0.292893 17.6976C0.48043 17.8852 0.734784 17.9905 1 17.9905C1.26522 17.9905 1.51957 17.8852 1.70711 17.6976C1.89464 17.5101 2 17.2558 2 16.9905C2 15.6645 2.52678 14.3927 3.46447 13.455C4.40215 12.5173 5.67392 11.9905 7 11.9905C8.32608 11.9905 9.59785 12.5173 10.5355 13.455C11.4732 14.3927 12 15.6645 12 16.9905C12 17.2558 12.1054 17.5101 12.2929 17.6976C12.4804 17.8852 12.7348 17.9905 13 17.9905C13.2652 17.9905 13.5196 17.8852 13.7071 17.6976C13.8946 17.5101 14 17.2558 14 16.9905C14.0024 15.819 13.7064 14.6661 13.14 13.6405C13.5819 13.2913 14.1132 13.0736 14.6731 13.0122C15.233 12.9508 15.7989 13.0483 16.306 13.2935C16.813 13.5387 17.2408 13.9217 17.5404 14.3987C17.84 14.8756 17.9993 15.4273 18 15.9905C18 16.2558 18.1054 16.5101 18.2929 16.6976C18.4804 16.8852 18.7348 16.9905 19 16.9905C19.2652 16.9905 19.5196 16.8852 19.7071 16.6976C19.8946 16.5101 20 16.2558 20 15.9905C20 14.6645 19.4732 13.3927 18.5355 12.455C17.5979 11.5173 16.3261 10.9905 15 10.9905Z" fill="#0001FC" fill-opacity="0.5"/>
</svg>
