<svg width="20" height="20" viewBox="0 0 20 20" fill="none" xmlns="http://www.w3.org/2000/svg">
<path d="M15.5236 19.0041C15.3637 19.0048 15.206 18.967 15.0636 18.8941L9.96363 16.2241L4.86363 18.8941C4.69802 18.9812 4.51131 19.0201 4.32471 19.0063C4.13811 18.9926 3.95911 18.9267 3.80806 18.8163C3.65701 18.7059 3.53997 18.5553 3.47024 18.3817C3.40052 18.208 3.3809 18.0183 3.41363 17.8341L4.41363 12.2041L0.29363 8.20411C0.165087 8.07584 0.0739014 7.91498 0.0298575 7.7388C-0.0141863 7.56263 -0.00942525 7.37778 0.0436298 7.20411C0.10159 7.02638 0.208206 6.86846 0.35138 6.74827C0.494554 6.62807 0.668552 6.55042 0.85363 6.52411L6.55363 5.69411L9.06363 0.56411C9.14551 0.395039 9.27337 0.252452 9.43254 0.152684C9.59171 0.0529152 9.77577 0 9.96363 0C10.1515 0 10.3355 0.0529152 10.4947 0.152684C10.6539 0.252452 10.7817 0.395039 10.8636 0.56411L13.4036 5.68411L19.1036 6.51411C19.2887 6.54042 19.4627 6.61807 19.6059 6.73827C19.7491 6.85846 19.8557 7.01638 19.9136 7.19411C19.9667 7.36778 19.9714 7.55263 19.9274 7.7288C19.8834 7.90498 19.7922 8.06583 19.6636 8.19411L15.5436 12.1941L16.5436 17.8241C16.5793 18.0116 16.5606 18.2054 16.4898 18.3826C16.4189 18.5598 16.2988 18.713 16.1436 18.8241C15.9625 18.951 15.7445 19.0143 15.5236 19.0041ZM9.96363 14.1041C10.1239 14.1001 10.2825 14.138 10.4236 14.2141L14.1936 16.2141L13.4736 12.0041C13.4457 11.8434 13.4575 11.6782 13.5081 11.5231C13.5586 11.368 13.6464 11.2275 13.7636 11.1141L16.7636 8.18411L12.5636 7.56411C12.4096 7.5331 12.2651 7.46624 12.1417 7.36895C12.0184 7.27165 11.9197 7.14666 11.8536 7.00411L9.96363 3.25411L8.07363 7.00411C8.00128 7.14781 7.89532 7.27194 7.76475 7.36595C7.63419 7.45996 7.48286 7.52107 7.32363 7.54411L3.12363 8.16411L6.12363 11.0941C6.24091 11.2075 6.32865 11.348 6.37919 11.5031C6.42974 11.6582 6.44157 11.8234 6.41363 11.9841L5.69363 16.1441L9.46363 14.1441C9.62337 14.0847 9.79648 14.0709 9.96363 14.1041Z" fill="#0001FC"/>
</svg>
