<svg width="19" height="20" viewBox="0 0 19 20" fill="none" xmlns="http://www.w3.org/2000/svg">
<path d="M16.2109 4.99999H15.8209C15.9408 4.67992 16.005 4.34172 16.0109 3.99999C15.99 3.18658 15.648 2.41452 15.0596 1.85242C14.4713 1.29033 13.6845 0.983874 12.8709 0.999995C12.0715 1.01726 11.2914 1.24915 10.6123 1.67138C9.93318 2.09361 9.3801 2.69066 9.01095 3.4C8.64179 2.69066 8.08871 2.09361 7.40962 1.67138C6.73053 1.24915 5.95041 1.01726 5.15095 0.999995C4.33742 0.983874 3.55057 1.29033 2.96224 1.85242C2.37392 2.41452 2.03192 3.18658 2.01095 3.99999C2.01685 4.34172 2.08111 4.67992 2.20095 4.99999H1.81095C1.5478 5.02498 1.29222 5.10188 1.05898 5.22625C0.825741 5.35062 0.619467 5.51999 0.452086 5.72456C0.284704 5.92914 0.159535 6.16487 0.0838159 6.41812C0.00809679 6.67137 -0.0166706 6.93711 0.0109457 7.19999V10.8C-0.0357699 11.2842 0.088726 11.7695 0.362781 12.1715C0.636835 12.5734 1.04311 12.8666 1.51095 13V17.37C1.54182 17.8236 1.74799 18.2473 2.08582 18.5516C2.42365 18.8558 2.86662 19.0166 3.32095 19H14.7009C15.1618 19.0163 15.6105 18.85 15.9494 18.5373C16.2884 18.2245 16.4902 17.7907 16.5109 17.33V13C16.9788 12.8666 17.3851 12.5734 17.6591 12.1715C17.9332 11.7695 18.0577 11.2842 18.0109 10.8V7.19999C18.0386 6.93711 18.0138 6.67137 17.9381 6.41812C17.8624 6.16487 17.7372 5.92914 17.5698 5.72456C17.4024 5.51999 17.1961 5.35062 16.9629 5.22625C16.7297 5.10188 16.4741 5.02498 16.2109 4.99999ZM16.0109 7.19999V10.8C16.0229 10.8661 16.0229 10.9339 16.0109 11H10.0109V6.99999H16.0109C16.0229 7.06612 16.0229 7.13387 16.0109 7.19999ZM12.8709 2.99999C13.1542 2.98349 13.4326 3.07914 13.646 3.26627C13.8593 3.4534 13.9904 3.71697 14.0109 3.99999C13.9904 4.28302 13.8593 4.54659 13.646 4.73372C13.4326 4.92085 13.1542 5.0165 12.8709 4.99999H10.4109C10.5859 4.46577 10.9109 3.99315 11.3471 3.63853C11.7833 3.2839 12.3122 3.06225 12.8709 2.99999ZM4.01095 3.99999C4.03149 3.71697 4.16259 3.4534 4.37592 3.26627C4.58925 3.07914 4.86766 2.98349 5.15095 2.99999C5.70786 3.06406 6.2347 3.28654 6.66897 3.64104C7.10323 3.99554 7.42669 4.46718 7.60095 4.99999H5.15095C4.86766 5.0165 4.58925 4.92085 4.37592 4.73372C4.16259 4.54659 4.03149 4.28302 4.01095 3.99999ZM2.01095 7.19999C1.99894 7.13387 1.99894 7.06612 2.01095 6.99999H8.01095V11H2.01095C1.99894 10.9339 1.99894 10.8661 2.01095 10.8V7.19999ZM3.51095 13H8.01095V17H3.51095V13ZM10.0109 17V13H14.5109V17H10.0109Z" fill="#0001FC"/>
<rect x="1.01093" width="15" height="5" fill="none"/>
<path d="M16.2109 4.99999H15.8209C15.9408 4.67992 16.005 4.34172 16.0109 3.99999C15.99 3.18658 15.648 2.41452 15.0596 1.85242C14.4713 1.29033 13.6845 0.983874 12.8709 0.999995C12.0715 1.01726 11.2914 1.24915 10.6123 1.67138C9.93318 2.09361 9.3801 2.69066 9.01095 3.4C8.64179 2.69066 8.08871 2.09361 7.40962 1.67138C6.73053 1.24915 5.95041 1.01726 5.15095 0.999995C4.33742 0.983874 3.55057 1.29033 2.96224 1.85242C2.37392 2.41452 2.03192 3.18658 2.01095 3.99999C2.01685 4.34172 2.08111 4.67992 2.20095 4.99999H1.81095C1.5478 5.02498 1.29222 5.10188 1.05898 5.22625C0.825741 5.35062 0.619467 5.51999 0.452086 5.72456C0.284704 5.92914 0.159535 6.16487 0.0838159 6.41812C0.00809679 6.67137 -0.0166706 6.93711 0.0109457 7.19999V10.8C-0.0357699 11.2842 0.088726 11.7695 0.362781 12.1715C0.636835 12.5734 1.04311 12.8666 1.51095 13V17.37C1.54182 17.8236 1.74799 18.2473 2.08582 18.5516C2.42365 18.8558 2.86662 19.0166 3.32095 19H14.7009C15.1618 19.0163 15.6105 18.85 15.9494 18.5373C16.2884 18.2245 16.4902 17.7907 16.5109 17.33V13C16.9788 12.8666 17.3851 12.5734 17.6591 12.1715C17.9332 11.7695 18.0577 11.2842 18.0109 10.8V7.19999C18.0386 6.93711 18.0138 6.67137 17.9381 6.41812C17.8624 6.16487 17.7372 5.92914 17.5698 5.72456C17.4024 5.51999 17.1961 5.35062 16.9629 5.22625C16.7297 5.10188 16.4741 5.02498 16.2109 4.99999ZM16.0109 7.19999V10.8C16.0229 10.8661 16.0229 10.9339 16.0109 11H10.0109V6.99999H16.0109C16.0229 7.06612 16.0229 7.13387 16.0109 7.19999ZM12.8709 2.99999C13.1542 2.98349 13.4326 3.07914 13.646 3.26627C13.8593 3.4534 13.9904 3.71697 14.0109 3.99999C13.9904 4.28302 13.8593 4.54659 13.646 4.73372C13.4326 4.92085 13.1542 5.0165 12.8709 4.99999H10.4109C10.5859 4.46577 10.9109 3.99315 11.3471 3.63853C11.7833 3.2839 12.3122 3.06225 12.8709 2.99999ZM4.01095 3.99999C4.03149 3.71697 4.16259 3.4534 4.37592 3.26627C4.58925 3.07914 4.86766 2.98349 5.15095 2.99999C5.70786 3.06406 6.2347 3.28654 6.66897 3.64104C7.10323 3.99554 7.42669 4.46718 7.60095 4.99999H5.15095C4.86766 5.0165 4.58925 4.92085 4.37592 4.73372C4.16259 4.54659 4.03149 4.28302 4.01095 3.99999ZM2.01095 7.19999C1.99894 7.13387 1.99894 7.06612 2.01095 6.99999H8.01095V11H2.01095C1.99894 10.9339 1.99894 10.8661 2.01095 10.8V7.19999ZM3.51095 13H8.01095V17H3.51095V13ZM10.0109 17V13H14.5109V17H10.0109Z" fill="#0001FC" fill-opacity="0.5"/>
</svg>
